<svg xmlns="http://www.w3.org/2000/svg" viewBox="0 0 297 316"><style>path{fill:#000}@media (prefers-color-scheme:dark){path{fill:#fefdf5}}</style><path d="M72.48,87h40.29L132,50.58a18.42,18.42,0,0,1,16.52-9.95h0a18.4,18.4,0,0,1,16.52,9.95L184.29,87h40.29l-28.06-53a54.29,54.29,0,0,0-96,0Z"/><path d="M110.42,129.45v94.43h18.31a17.57,17.57,0,0,0,17.06-14.53,17.25,17.25,0,0,0,.25-2.89V150.07a22.5,22.5,0,0,1,22.48-22.5h79.2V92H147.92A37.54,37.54,0,0,0,110.42,129.45Z"/><path d="M8.92,207.13A40.07,40.07,0,0,0,6.12,215a40.54,40.54,0,0,0,3.9,29,37.75,37.75,0,0,0,16.56,15.77c4.77,2.32,10.42,4.68,16.14,4.68H148.54a38.15,38.15,0,0,0,38.11-38.11V132.57H168.43A17.53,17.53,0,0,0,151,150v56.48a23.14,23.14,0,0,1-.35,3.84,22.57,22.57,0,0,1-22.15,18.53H60a13,13,0,0,1-11.24-6.45,13.84,13.84,0,0,1-.34-13.74l40.25-76.12H48.36L10.18,204.65C9.74,205.45,9.34,206.24,8.92,207.13Z"/><path d="M270.49,259.82a37.8,37.8,0,0,0,16.56-15.77,40.53,40.53,0,0,0,3.89-29,40.07,40.07,0,0,0-2.8-7.89c-.42-.89-.82-1.69-1.24-2.43l-38.19-72.12H208.44l40.25,76.12a13.84,13.84,0,0,1-.34,13.74,13,13,0,0,1-11.23,6.45H191.58a42.8,42.8,0,0,1-4.62,17h0a43.38,43.38,0,0,1-18.27,18.55h85.67C260.07,264.5,265.72,262.14,270.49,259.82Z"/><path d="M49.35,127.58h56.11A42.56,42.56,0,0,1,127.93,92H49.35Z"/></svg>
